<?xml version="1.0" encoding="UTF-8" standalone="no"?>
<svg fill-rule="evenodd" height="24px" image-rendering="optimizeQuality" shape-rendering="geometricPrecision" text-rendering="geometricPrecision" viewBox="0 0 6.75839 6.47084" width="24px" xmlns="http://www.w3.org/2000/svg">
<path d="m1.16462,2.25428h.55101l.0847,2.96538-.70985,2.31237e-005 .07413-2.96541zm-.51931,3.07198h5.46776v.38154h.32762l-2.31237e-005,.38154h.31772v.38149l-6.75839-2.31237e-005v-.38147h.31772v-.38154h.32759v-.38154zm5.75292-3.89995-3.0191-1.42632-3.01915,1.42632 2.31237e-005,.23318 6.03822,2.31237e-005v-.2332zm-5.4562.33987h4.87434v.38147h-4.87434v-.38147zm4.0901.4881h.55101l.08473,2.96541-.70985-2.31237e-005 .07411-2.96538zm-1.28917,0 .55101,2.31237e-005 .08473,2.96536-.70987,2.31237e-005 .07413-2.96541zm-1.28917,0 .55099-2.31237e-005 .08477,2.96541h-.7099l.07413-2.96538z" fill="#ffffff"/>
</svg>
