<?xml version="1.0" encoding="utf-8"?>
<!-- Generator: Adobe Illustrator 17.1.0, SVG Export Plug-In . SVG Version: 6.00 Build 0)  -->
<!DOCTYPE svg PUBLIC "-//W3C//DTD SVG 1.1//EN" "http://www.w3.org/Graphics/SVG/1.1/DTD/svg11.dtd" [
	<!ENTITY ns_extend "http://ns.adobe.com/Extensibility/1.0/">
	<!ENTITY ns_ai "http://ns.adobe.com/AdobeIllustrator/10.0/">
	<!ENTITY ns_graphs "http://ns.adobe.com/Graphs/1.0/">
	<!ENTITY ns_vars "http://ns.adobe.com/Variables/1.0/">
	<!ENTITY ns_imrep "http://ns.adobe.com/ImageReplacement/1.0/">
	<!ENTITY ns_sfw "http://ns.adobe.com/SaveForWeb/1.0/">
	<!ENTITY ns_custom "http://ns.adobe.com/GenericCustomNamespace/1.0/">
	<!ENTITY ns_adobe_xpath "http://ns.adobe.com/XPath/1.0/">
]>
<svg version="1.1" id="Layer_1" xmlns:x="&ns_extend;" xmlns:i="&ns_ai;" xmlns:graph="&ns_graphs;"
	 xmlns="http://www.w3.org/2000/svg" xmlns:xlink="http://www.w3.org/1999/xlink" x="0px" y="0px" viewBox="0 0 235.4 33.1"
	 enable-background="new 0 0 235.4 33.1" xml:space="preserve">
<metadata><?xpacket begin="﻿" id="W5M0MpCehiHzreSzNTczkc9d"?>
<x:xmpmeta xmlns:x="adobe:ns:meta/" x:xmptk="Adobe XMP Core 5.5-c014 79.151739, 2013/04/03-12:12:15        ">
   <rdf:RDF xmlns:rdf="http://www.w3.org/1999/02/22-rdf-syntax-ns#">
      <rdf:Description rdf:about=""
            xmlns:dc="http://purl.org/dc/elements/1.1/"
            xmlns:xmp="http://ns.adobe.com/xap/1.0/"
            xmlns:xmpGImg="http://ns.adobe.com/xap/1.0/g/img/"
            xmlns:xmpMM="http://ns.adobe.com/xap/1.0/mm/"
            xmlns:stRef="http://ns.adobe.com/xap/1.0/sType/ResourceRef#"
            xmlns:stEvt="http://ns.adobe.com/xap/1.0/sType/ResourceEvent#"
            xmlns:illustrator="http://ns.adobe.com/illustrator/1.0/"
            xmlns:xmpTPg="http://ns.adobe.com/xap/1.0/t/pg/"
            xmlns:stDim="http://ns.adobe.com/xap/1.0/sType/Dimensions#"
            xmlns:xmpG="http://ns.adobe.com/xap/1.0/g/"
            xmlns:pdf="http://ns.adobe.com/pdf/1.3/">
         <dc:format>image/svg+xml</dc:format>
         <dc:title>
            <rdf:Alt>
               <rdf:li xml:lang="x-default">Web</rdf:li>
            </rdf:Alt>
         </dc:title>
         <xmp:CreatorTool>Adobe Illustrator CC (Macintosh)</xmp:CreatorTool>
         <xmp:CreateDate>2015-08-17T12:39:09+03:00</xmp:CreateDate>
         <xmp:ModifyDate>2015-08-17T12:39:09+03:00</xmp:ModifyDate>
         <xmp:MetadataDate>2015-08-17T12:39:09+03:00</xmp:MetadataDate>
         <xmp:Thumbnails>
            <rdf:Alt>
               <rdf:li rdf:parseType="Resource">
                  <xmpGImg:width>256</xmpGImg:width>
                  <xmpGImg:height>36</xmpGImg:height>
                  <xmpGImg:format>JPEG</xmpGImg:format>
                  <xmpGImg:image>/9j/4AAQSkZJRgABAgEBLAEsAAD/7QAsUGhvdG9zaG9wIDMuMAA4QklNA+0AAAAAABABLAAAAAEA&#xA;AQEsAAAAAQAB/+4ADkFkb2JlAGTAAAAAAf/bAIQABgQEBAUEBgUFBgkGBQYJCwgGBggLDAoKCwoK&#xA;DBAMDAwMDAwQDA4PEA8ODBMTFBQTExwbGxscHx8fHx8fHx8fHwEHBwcNDA0YEBAYGhURFRofHx8f&#xA;Hx8fHx8fHx8fHx8fHx8fHx8fHx8fHx8fHx8fHx8fHx8fHx8fHx8fHx8fHx8f/8AAEQgAJAEAAwER&#xA;AAIRAQMRAf/EAaIAAAAHAQEBAQEAAAAAAAAAAAQFAwIGAQAHCAkKCwEAAgIDAQEBAQEAAAAAAAAA&#xA;AQACAwQFBgcICQoLEAACAQMDAgQCBgcDBAIGAnMBAgMRBAAFIRIxQVEGE2EicYEUMpGhBxWxQiPB&#xA;UtHhMxZi8CRygvElQzRTkqKyY3PCNUQnk6OzNhdUZHTD0uIIJoMJChgZhJRFRqS0VtNVKBry4/PE&#xA;1OT0ZXWFlaW1xdXl9WZ2hpamtsbW5vY3R1dnd4eXp7fH1+f3OEhYaHiImKi4yNjo+Ck5SVlpeYmZ&#xA;qbnJ2en5KjpKWmp6ipqqusra6voRAAICAQIDBQUEBQYECAMDbQEAAhEDBCESMUEFURNhIgZxgZEy&#xA;obHwFMHR4SNCFVJicvEzJDRDghaSUyWiY7LCB3PSNeJEgxdUkwgJChgZJjZFGidkdFU38qOzwygp&#xA;0+PzhJSktMTU5PRldYWVpbXF1eX1RlZmdoaWprbG1ub2R1dnd4eXp7fH1+f3OEhYaHiImKi4yNjo&#xA;+DlJWWl5iZmpucnZ6fkqOkpaanqKmqq6ytrq+v/aAAwDAQACEQMRAD8A9BXi61dT3EySGKGGRo1X&#xA;1PTG3hUj78VUm1DXrVDHcI0kZ2ImTkD/ALLv9+Komzvb+x0eSeRC3KSkIfYKCOtOtPAYqnGkzSz6&#xA;dDLK3KRwSzf7I4qi8VdiqG1A3n1fjaAeu54hj0UUJJ/DFUm0bWLpbxrS9csSSoLdVcfs7eOKqtzq&#xA;GvfXylvbERkUjRlqCP5iwNAd/HFU5tllS3jWZuUoUeo3i1N8VbeaJHRGYB5DRF7n5DFV+KuxVxNA&#xA;T19sVY7d6tq1nqSRzlDG/FvSUVHFjT7VK1xVE61qd/aA+igEYkC+qaH9kNxp7+OKo/Tbt7y0S4ZQ&#xA;nOtFBr0ND+IxVFYq7FVkzOkTsihnUEqpNASPfFUp8v6hc3st3JO1aenwQbKoPLoMVTnFUs12S+4Q&#xA;QWZKvOxUsNjsK0r2xVJQPMNqzGN3kCmjcWEoB9x8VPuxVfaXmp3WpQyenwMZ/fmNStU6nn47dMVT&#xA;nS9X+vyTL6LRiM/Cx6U8D4HFUxxV2KuxV2KuxV2KsdguJNQuby8D8EtUJgUAbEg0beor8OKqGl6g&#xA;8VndzzB52Z4wT1PfqT0GKpj5hkEmjCQKV5Mh4sKEV8RiqX/X9Rs9MsZIgot6kE9Sxqdm8K+2Kptc&#xA;a3Fb2MVy8Z5TisUYNe1dz2xVCWOs3f6UNteAKsoHpBRsCd19zyGKo/WNRextRJGnN3YIta0BIJ3p&#xA;8sVSHVbWRraDU1HB5N5wtRRySQf4Yqnml34vY4Zf92BHWUeDAr+vriqX33mC4kSUWKcUhp6krULU&#xA;JpUDp1xVDahcXMgttYt248VEbj+RxWux7GuKorUNZvl021uIlWMzfbkG9CD0APjTFWtT1nUYbWzd&#xA;QsZnQSM4+KtKGlD02IxVOYppVtfXugqELzcLUhQBU74qxPVdQjv7+OWNSiqFQBqVNGJrt88VTTzH&#xA;KPq0sVN/WRq1XpwHavL8MVX2OoR2Hl+3mdC9WZFUbblmO5+jFVGbWdUt5YLqZVa0nUFY1FAK7kV6&#xA;8hiqvq+rX0EEE0EYjikIPNqEnuBQdKjFXRXGt3VwJOIhsnQP+y3w05detTiqX6FfR2dveSMRzYxr&#xA;GD0LHl19h3xVN9KGtNJyvmCxKDxA4ksT7r2GKrPMF7JGIbSE8ZbhqF+6itNvnXFUtv8A1bfU7ayS&#xA;Rvq8ZionQVJ8BT8cVTmz1Azy3axwOHjbYOOIJoFoT26V+WKoLSNVunuri1lhX1eTPxSi0INGB8cV&#xA;dFrGpDVJbSWJSzVEUdaAECo+Km4IxVZY61qcpubcxK90gZkB+Hjx2K0HWnbFUToGq3F6rxzAM8e7&#xA;SdKg9NgMVQ9/r9w4mSxSghFZJW3NK8aqPniqJ/T0a6Sl4yF3LemyDYc6E9fDauKoYXGvSSxVeNYr&#xA;xVMZFPhUjkeIPxVAOKpbaTvp11c2k3wpKDE7Gu3g+3XY4qnFsuk6fYyencrIXoWbkCTTwUYqh9Vu&#xA;3udHedxwSWUfV0PXgu1fpNTiqGvJY28t2iKwLrIOSg7jZ+oxV2s7aTpoPXhWnsVFMVTjT5bOSKK5&#xA;Uia4KiMUA5LTqoHaldycVV9SvLG2hBu/iDH4EpUkjeo+WKoS11HTdQgktSxBlLfu2FCQzEilK9K4&#xA;qgNAhktNWubeU0EcbFuw2ZaN92KofQ3gN7PBM4RJwVof2t/s17VxVM9eMX6HKwrxiV1CUFFI/wAn&#xA;FUtvJI38vWaqwLJIQwHUH4uuKrtX/fWGlLF+8b0ytF3PIKgI2xVk4RWhEbiqsvFlPgRQjFWLa9bw&#xA;2+oW8UKhEEa7D/Xbr44qmHmNV+oymgr667/88xiqBuiP8MWY7+qxp7VfFVuozxTaNYrGwZo/gdR1&#xA;BC+GKorzB8Ok2SNs/wAPwnY7JQ7YqmthNE2lQ8XU8YF5UI2otDX6RirFrCzS6trlQwFynBoVruw+&#xA;Lko/DFU68u6qskItJmpLHQRE/tL0p8xiqj5qglEkF0leK/AT4EGoxVu1OnajdLfXE6xyoF/cVC7r&#xA;3qeo+WKo5NSWbUPqtqRJV+cso3UIqgUB9ztiqV6ZNFH5iuTIwUM0oUnYV5V/hiq6eaEeaUcuOAKq&#xA;WrtXhT9eKtaVLEPMN0xcBWMvFq7H4q/qxVrytPDHNOsjhWcLwB70J/riqlpEkI1O4imkCJPyTf8A&#xA;aq32a9q4qmmsDTjpnpH91EjD0GUfCXoelOoA6/1xVJtQSz+r2j2czyyLVGJJqCNxRT067UxVkt/p&#xA;NnfUMykONhIpo1MVQcHlewjcM7PKB0ViAPpoMVTC5sLS5h9GWMFAKLQUK06cT2xVKtT06SdYbCyg&#xA;McETcnlYUWtKd92xVNjZW7Wi2sih4lQJQ+CigxVqysLayi9OBaV+0x3ZvmcVQuq6X9buLeYr6kcR&#xA;IkhrQlT4HbFVay0qytJXmhTiz9ia8R4DFVY2kP1v61T94YzE3gVJB3+7FVGXSLCW7F08dZB1H7JP&#xA;Ykd8VRE9tBOnCaMOtCKEePhiqEh0PTYoHh9Lmr/aZt29qHtTFVWx0y0slpCtW7yNu2/+fbFUUTQE&#xA;9adsVYuNS0q6LT6jG7XAJCBagKg3UChXx74qo6jqlrd/BWf0uXIqSg3ApXYeHvirIdOjsZtMiSFe&#xA;dsVK8XAJ6/FX6cVbstIsbNi8SVcmodtyPYYqq3dlbXUTRzIGDCnL9oU6EH2riroLG1htxbpGPSHV&#xA;SK1Pia9cVWWel2Vo7vAlGc9TvQeA9sVbt9OtIJ5J44wJZTVm8K9QPDFVeWKOWNo5VDo2zKdxiqUS&#xA;eVbBn5JJIin9kEH7iRiqYWWnWtlGUgSnL7THdj8zirTaXYtdrdGMeqgoP5duhp4jtircmm2cl2t2&#xA;8YMyigPao6EjxGKui060iunukjAmk6nw8SPn3xVq30yygnkmjjAeXrXcCvUDwriq2fSLCe6W5kjr&#xA;IvUdm8OQ70xVu/06G8EQkG0TcuJrQjoRtTFWrPSbGzdnhj+NiaM25APYVxVGYq7FXYq7FXYq7FXY&#xA;q7FXYq7FXYq7FXYq7FUguv8AC/1p/V/vOXx8OfGtd/s/wxVfN/h/6hN9W9DnwPHlTn0/Z5fFXw98&#xA;VTDSPq36Oh+rV9Khpy+1Wu9fpxVGYq7FXYq7FXYq7FXYq7FXYq7FXYq7FXYq7FXYq//Z</xmpGImg:image>
               </rdf:li>
            </rdf:Alt>
         </xmp:Thumbnails>
         <xmpMM:RenditionClass>proof:pdf</xmpMM:RenditionClass>
         <xmpMM:OriginalDocumentID>uuid:65E6390686CF11DBA6E2D887CEACB407</xmpMM:OriginalDocumentID>
         <xmpMM:DocumentID>xmp.did:486fe825-d599-4c36-8ef3-70af82db1aa4</xmpMM:DocumentID>
         <xmpMM:InstanceID>xmp.iid:486fe825-d599-4c36-8ef3-70af82db1aa4</xmpMM:InstanceID>
         <xmpMM:DerivedFrom rdf:parseType="Resource">
            <stRef:instanceID>uuid:1abccb90-0c26-4942-b156-fd2eb962e3e1</stRef:instanceID>
            <stRef:documentID>xmp.did:58fdc1b8-1448-3a44-9e20-282d8ec1cf95</stRef:documentID>
            <stRef:originalDocumentID>uuid:65E6390686CF11DBA6E2D887CEACB407</stRef:originalDocumentID>
            <stRef:renditionClass>proof:pdf</stRef:renditionClass>
         </xmpMM:DerivedFrom>
         <xmpMM:History>
            <rdf:Seq>
               <rdf:li rdf:parseType="Resource">
                  <stEvt:action>saved</stEvt:action>
                  <stEvt:instanceID>xmp.iid:486fe825-d599-4c36-8ef3-70af82db1aa4</stEvt:instanceID>
                  <stEvt:when>2015-08-17T12:39:09+03:00</stEvt:when>
                  <stEvt:softwareAgent>Adobe Illustrator CC (Macintosh)</stEvt:softwareAgent>
                  <stEvt:changed>/</stEvt:changed>
               </rdf:li>
            </rdf:Seq>
         </xmpMM:History>
         <illustrator:StartupProfile>Web</illustrator:StartupProfile>
         <xmpTPg:NPages>1</xmpTPg:NPages>
         <xmpTPg:HasVisibleTransparency>False</xmpTPg:HasVisibleTransparency>
         <xmpTPg:HasVisibleOverprint>False</xmpTPg:HasVisibleOverprint>
         <xmpTPg:MaxPageSize rdf:parseType="Resource">
            <stDim:w>235.379077</stDim:w>
            <stDim:h>33.054679</stDim:h>
            <stDim:unit>Pixels</stDim:unit>
         </xmpTPg:MaxPageSize>
         <xmpTPg:PlateNames>
            <rdf:Seq>
               <rdf:li>Cyan</rdf:li>
               <rdf:li>Magenta</rdf:li>
               <rdf:li>Yellow</rdf:li>
            </rdf:Seq>
         </xmpTPg:PlateNames>
         <xmpTPg:SwatchGroups>
            <rdf:Seq>
               <rdf:li rdf:parseType="Resource">
                  <xmpG:groupName>Default Swatch Group</xmpG:groupName>
                  <xmpG:groupType>0</xmpG:groupType>
                  <xmpG:Colorants>
                     <rdf:Seq>
                        <rdf:li rdf:parseType="Resource">
                           <xmpG:swatchName>White</xmpG:swatchName>
                           <xmpG:mode>RGB</xmpG:mode>
                           <xmpG:type>PROCESS</xmpG:type>
                           <xmpG:red>255</xmpG:red>
                           <xmpG:green>255</xmpG:green>
                           <xmpG:blue>255</xmpG:blue>
                        </rdf:li>
                        <rdf:li rdf:parseType="Resource">
                           <xmpG:swatchName>Black</xmpG:swatchName>
                           <xmpG:mode>RGB</xmpG:mode>
                           <xmpG:type>PROCESS</xmpG:type>
                           <xmpG:red>0</xmpG:red>
                           <xmpG:green>0</xmpG:green>
                           <xmpG:blue>0</xmpG:blue>
                        </rdf:li>
                        <rdf:li rdf:parseType="Resource">
                           <xmpG:swatchName>RGB Red</xmpG:swatchName>
                           <xmpG:mode>RGB</xmpG:mode>
                           <xmpG:type>PROCESS</xmpG:type>
                           <xmpG:red>255</xmpG:red>
                           <xmpG:green>0</xmpG:green>
                           <xmpG:blue>0</xmpG:blue>
                        </rdf:li>
                        <rdf:li rdf:parseType="Resource">
                           <xmpG:swatchName>RGB Yellow</xmpG:swatchName>
                           <xmpG:mode>RGB</xmpG:mode>
                           <xmpG:type>PROCESS</xmpG:type>
                           <xmpG:red>255</xmpG:red>
                           <xmpG:green>255</xmpG:green>
                           <xmpG:blue>0</xmpG:blue>
                        </rdf:li>
                        <rdf:li rdf:parseType="Resource">
                           <xmpG:swatchName>RGB Green</xmpG:swatchName>
                           <xmpG:mode>RGB</xmpG:mode>
                           <xmpG:type>PROCESS</xmpG:type>
                           <xmpG:red>0</xmpG:red>
                           <xmpG:green>255</xmpG:green>
                           <xmpG:blue>0</xmpG:blue>
                        </rdf:li>
                        <rdf:li rdf:parseType="Resource">
                           <xmpG:swatchName>RGB Cyan</xmpG:swatchName>
                           <xmpG:mode>RGB</xmpG:mode>
                           <xmpG:type>PROCESS</xmpG:type>
                           <xmpG:red>0</xmpG:red>
                           <xmpG:green>255</xmpG:green>
                           <xmpG:blue>255</xmpG:blue>
                        </rdf:li>
                        <rdf:li rdf:parseType="Resource">
                           <xmpG:swatchName>RGB Blue</xmpG:swatchName>
                           <xmpG:mode>RGB</xmpG:mode>
                           <xmpG:type>PROCESS</xmpG:type>
                           <xmpG:red>0</xmpG:red>
                           <xmpG:green>0</xmpG:green>
                           <xmpG:blue>255</xmpG:blue>
                        </rdf:li>
                        <rdf:li rdf:parseType="Resource">
                           <xmpG:swatchName>RGB Magenta</xmpG:swatchName>
                           <xmpG:mode>RGB</xmpG:mode>
                           <xmpG:type>PROCESS</xmpG:type>
                           <xmpG:red>255</xmpG:red>
                           <xmpG:green>0</xmpG:green>
                           <xmpG:blue>255</xmpG:blue>
                        </rdf:li>
                        <rdf:li rdf:parseType="Resource">
                           <xmpG:swatchName>R=193 G=39 B=45</xmpG:swatchName>
                           <xmpG:mode>RGB</xmpG:mode>
                           <xmpG:type>PROCESS</xmpG:type>
                           <xmpG:red>193</xmpG:red>
                           <xmpG:green>39</xmpG:green>
                           <xmpG:blue>45</xmpG:blue>
                        </rdf:li>
                        <rdf:li rdf:parseType="Resource">
                           <xmpG:swatchName>R=237 G=28 B=36</xmpG:swatchName>
                           <xmpG:mode>RGB</xmpG:mode>
                           <xmpG:type>PROCESS</xmpG:type>
                           <xmpG:red>237</xmpG:red>
                           <xmpG:green>28</xmpG:green>
                           <xmpG:blue>36</xmpG:blue>
                        </rdf:li>
                        <rdf:li rdf:parseType="Resource">
                           <xmpG:swatchName>R=241 G=90 B=36</xmpG:swatchName>
                           <xmpG:mode>RGB</xmpG:mode>
                           <xmpG:type>PROCESS</xmpG:type>
                           <xmpG:red>241</xmpG:red>
                           <xmpG:green>90</xmpG:green>
                           <xmpG:blue>36</xmpG:blue>
                        </rdf:li>
                        <rdf:li rdf:parseType="Resource">
                           <xmpG:swatchName>R=247 G=147 B=30</xmpG:swatchName>
                           <xmpG:mode>RGB</xmpG:mode>
                           <xmpG:type>PROCESS</xmpG:type>
                           <xmpG:red>247</xmpG:red>
                           <xmpG:green>147</xmpG:green>
                           <xmpG:blue>30</xmpG:blue>
                        </rdf:li>
                        <rdf:li rdf:parseType="Resource">
                           <xmpG:swatchName>R=251 G=176 B=59</xmpG:swatchName>
                           <xmpG:mode>RGB</xmpG:mode>
                           <xmpG:type>PROCESS</xmpG:type>
                           <xmpG:red>251</xmpG:red>
                           <xmpG:green>176</xmpG:green>
                           <xmpG:blue>59</xmpG:blue>
                        </rdf:li>
                        <rdf:li rdf:parseType="Resource">
                           <xmpG:swatchName>R=252 G=238 B=33</xmpG:swatchName>
                           <xmpG:mode>RGB</xmpG:mode>
                           <xmpG:type>PROCESS</xmpG:type>
                           <xmpG:red>252</xmpG:red>
                           <xmpG:green>238</xmpG:green>
                           <xmpG:blue>33</xmpG:blue>
                        </rdf:li>
                        <rdf:li rdf:parseType="Resource">
                           <xmpG:swatchName>R=217 G=224 B=33</xmpG:swatchName>
                           <xmpG:mode>RGB</xmpG:mode>
                           <xmpG:type>PROCESS</xmpG:type>
                           <xmpG:red>217</xmpG:red>
                           <xmpG:green>224</xmpG:green>
                           <xmpG:blue>33</xmpG:blue>
                        </rdf:li>
                        <rdf:li rdf:parseType="Resource">
                           <xmpG:swatchName>R=140 G=198 B=63</xmpG:swatchName>
                           <xmpG:mode>RGB</xmpG:mode>
                           <xmpG:type>PROCESS</xmpG:type>
                           <xmpG:red>140</xmpG:red>
                           <xmpG:green>198</xmpG:green>
                           <xmpG:blue>63</xmpG:blue>
                        </rdf:li>
                        <rdf:li rdf:parseType="Resource">
                           <xmpG:swatchName>R=57 G=181 B=74</xmpG:swatchName>
                           <xmpG:mode>RGB</xmpG:mode>
                           <xmpG:type>PROCESS</xmpG:type>
                           <xmpG:red>57</xmpG:red>
                           <xmpG:green>181</xmpG:green>
                           <xmpG:blue>74</xmpG:blue>
                        </rdf:li>
                        <rdf:li rdf:parseType="Resource">
                           <xmpG:swatchName>R=0 G=146 B=69</xmpG:swatchName>
                           <xmpG:mode>RGB</xmpG:mode>
                           <xmpG:type>PROCESS</xmpG:type>
                           <xmpG:red>0</xmpG:red>
                           <xmpG:green>146</xmpG:green>
                           <xmpG:blue>69</xmpG:blue>
                        </rdf:li>
                        <rdf:li rdf:parseType="Resource">
                           <xmpG:swatchName>R=0 G=104 B=55</xmpG:swatchName>
                           <xmpG:mode>RGB</xmpG:mode>
                           <xmpG:type>PROCESS</xmpG:type>
                           <xmpG:red>0</xmpG:red>
                           <xmpG:green>104</xmpG:green>
                           <xmpG:blue>55</xmpG:blue>
                        </rdf:li>
                        <rdf:li rdf:parseType="Resource">
                           <xmpG:swatchName>R=34 G=181 B=115</xmpG:swatchName>
                           <xmpG:mode>RGB</xmpG:mode>
                           <xmpG:type>PROCESS</xmpG:type>
                           <xmpG:red>34</xmpG:red>
                           <xmpG:green>181</xmpG:green>
                           <xmpG:blue>115</xmpG:blue>
                        </rdf:li>
                        <rdf:li rdf:parseType="Resource">
                           <xmpG:swatchName>R=0 G=169 B=157</xmpG:swatchName>
                           <xmpG:mode>RGB</xmpG:mode>
                           <xmpG:type>PROCESS</xmpG:type>
                           <xmpG:red>0</xmpG:red>
                           <xmpG:green>169</xmpG:green>
                           <xmpG:blue>157</xmpG:blue>
                        </rdf:li>
                        <rdf:li rdf:parseType="Resource">
                           <xmpG:swatchName>R=41 G=171 B=226</xmpG:swatchName>
                           <xmpG:mode>RGB</xmpG:mode>
                           <xmpG:type>PROCESS</xmpG:type>
                           <xmpG:red>41</xmpG:red>
                           <xmpG:green>171</xmpG:green>
                           <xmpG:blue>226</xmpG:blue>
                        </rdf:li>
                        <rdf:li rdf:parseType="Resource">
                           <xmpG:swatchName>R=0 G=113 B=188</xmpG:swatchName>
                           <xmpG:mode>RGB</xmpG:mode>
                           <xmpG:type>PROCESS</xmpG:type>
                           <xmpG:red>0</xmpG:red>
                           <xmpG:green>113</xmpG:green>
                           <xmpG:blue>188</xmpG:blue>
                        </rdf:li>
                        <rdf:li rdf:parseType="Resource">
                           <xmpG:swatchName>R=46 G=49 B=146</xmpG:swatchName>
                           <xmpG:mode>RGB</xmpG:mode>
                           <xmpG:type>PROCESS</xmpG:type>
                           <xmpG:red>46</xmpG:red>
                           <xmpG:green>49</xmpG:green>
                           <xmpG:blue>146</xmpG:blue>
                        </rdf:li>
                        <rdf:li rdf:parseType="Resource">
                           <xmpG:swatchName>R=27 G=20 B=100</xmpG:swatchName>
                           <xmpG:mode>RGB</xmpG:mode>
                           <xmpG:type>PROCESS</xmpG:type>
                           <xmpG:red>27</xmpG:red>
                           <xmpG:green>20</xmpG:green>
                           <xmpG:blue>100</xmpG:blue>
                        </rdf:li>
                        <rdf:li rdf:parseType="Resource">
                           <xmpG:swatchName>R=102 G=45 B=145</xmpG:swatchName>
                           <xmpG:mode>RGB</xmpG:mode>
                           <xmpG:type>PROCESS</xmpG:type>
                           <xmpG:red>102</xmpG:red>
                           <xmpG:green>45</xmpG:green>
                           <xmpG:blue>145</xmpG:blue>
                        </rdf:li>
                        <rdf:li rdf:parseType="Resource">
                           <xmpG:swatchName>R=147 G=39 B=143</xmpG:swatchName>
                           <xmpG:mode>RGB</xmpG:mode>
                           <xmpG:type>PROCESS</xmpG:type>
                           <xmpG:red>147</xmpG:red>
                           <xmpG:green>39</xmpG:green>
                           <xmpG:blue>143</xmpG:blue>
                        </rdf:li>
                        <rdf:li rdf:parseType="Resource">
                           <xmpG:swatchName>R=158 G=0 B=93</xmpG:swatchName>
                           <xmpG:mode>RGB</xmpG:mode>
                           <xmpG:type>PROCESS</xmpG:type>
                           <xmpG:red>158</xmpG:red>
                           <xmpG:green>0</xmpG:green>
                           <xmpG:blue>93</xmpG:blue>
                        </rdf:li>
                        <rdf:li rdf:parseType="Resource">
                           <xmpG:swatchName>R=212 G=20 B=90</xmpG:swatchName>
                           <xmpG:mode>RGB</xmpG:mode>
                           <xmpG:type>PROCESS</xmpG:type>
                           <xmpG:red>212</xmpG:red>
                           <xmpG:green>20</xmpG:green>
                           <xmpG:blue>90</xmpG:blue>
                        </rdf:li>
                        <rdf:li rdf:parseType="Resource">
                           <xmpG:swatchName>R=237 G=30 B=121</xmpG:swatchName>
                           <xmpG:mode>RGB</xmpG:mode>
                           <xmpG:type>PROCESS</xmpG:type>
                           <xmpG:red>237</xmpG:red>
                           <xmpG:green>30</xmpG:green>
                           <xmpG:blue>121</xmpG:blue>
                        </rdf:li>
                        <rdf:li rdf:parseType="Resource">
                           <xmpG:swatchName>R=199 G=178 B=153</xmpG:swatchName>
                           <xmpG:mode>RGB</xmpG:mode>
                           <xmpG:type>PROCESS</xmpG:type>
                           <xmpG:red>199</xmpG:red>
                           <xmpG:green>178</xmpG:green>
                           <xmpG:blue>153</xmpG:blue>
                        </rdf:li>
                        <rdf:li rdf:parseType="Resource">
                           <xmpG:swatchName>R=153 G=134 B=117</xmpG:swatchName>
                           <xmpG:mode>RGB</xmpG:mode>
                           <xmpG:type>PROCESS</xmpG:type>
                           <xmpG:red>153</xmpG:red>
                           <xmpG:green>134</xmpG:green>
                           <xmpG:blue>117</xmpG:blue>
                        </rdf:li>
                        <rdf:li rdf:parseType="Resource">
                           <xmpG:swatchName>R=115 G=99 B=87</xmpG:swatchName>
                           <xmpG:mode>RGB</xmpG:mode>
                           <xmpG:type>PROCESS</xmpG:type>
                           <xmpG:red>115</xmpG:red>
                           <xmpG:green>99</xmpG:green>
                           <xmpG:blue>87</xmpG:blue>
                        </rdf:li>
                        <rdf:li rdf:parseType="Resource">
                           <xmpG:swatchName>R=83 G=71 B=65</xmpG:swatchName>
                           <xmpG:mode>RGB</xmpG:mode>
                           <xmpG:type>PROCESS</xmpG:type>
                           <xmpG:red>83</xmpG:red>
                           <xmpG:green>71</xmpG:green>
                           <xmpG:blue>65</xmpG:blue>
                        </rdf:li>
                        <rdf:li rdf:parseType="Resource">
                           <xmpG:swatchName>R=198 G=156 B=109</xmpG:swatchName>
                           <xmpG:mode>RGB</xmpG:mode>
                           <xmpG:type>PROCESS</xmpG:type>
                           <xmpG:red>198</xmpG:red>
                           <xmpG:green>156</xmpG:green>
                           <xmpG:blue>109</xmpG:blue>
                        </rdf:li>
                        <rdf:li rdf:parseType="Resource">
                           <xmpG:swatchName>R=166 G=124 B=82</xmpG:swatchName>
                           <xmpG:mode>RGB</xmpG:mode>
                           <xmpG:type>PROCESS</xmpG:type>
                           <xmpG:red>166</xmpG:red>
                           <xmpG:green>124</xmpG:green>
                           <xmpG:blue>82</xmpG:blue>
                        </rdf:li>
                        <rdf:li rdf:parseType="Resource">
                           <xmpG:swatchName>R=140 G=98 B=57</xmpG:swatchName>
                           <xmpG:mode>RGB</xmpG:mode>
                           <xmpG:type>PROCESS</xmpG:type>
                           <xmpG:red>140</xmpG:red>
                           <xmpG:green>98</xmpG:green>
                           <xmpG:blue>57</xmpG:blue>
                        </rdf:li>
                        <rdf:li rdf:parseType="Resource">
                           <xmpG:swatchName>R=117 G=76 B=36</xmpG:swatchName>
                           <xmpG:mode>RGB</xmpG:mode>
                           <xmpG:type>PROCESS</xmpG:type>
                           <xmpG:red>117</xmpG:red>
                           <xmpG:green>76</xmpG:green>
                           <xmpG:blue>36</xmpG:blue>
                        </rdf:li>
                        <rdf:li rdf:parseType="Resource">
                           <xmpG:swatchName>R=96 G=56 B=19</xmpG:swatchName>
                           <xmpG:mode>RGB</xmpG:mode>
                           <xmpG:type>PROCESS</xmpG:type>
                           <xmpG:red>96</xmpG:red>
                           <xmpG:green>56</xmpG:green>
                           <xmpG:blue>19</xmpG:blue>
                        </rdf:li>
                        <rdf:li rdf:parseType="Resource">
                           <xmpG:swatchName>R=66 G=33 B=11</xmpG:swatchName>
                           <xmpG:mode>RGB</xmpG:mode>
                           <xmpG:type>PROCESS</xmpG:type>
                           <xmpG:red>66</xmpG:red>
                           <xmpG:green>33</xmpG:green>
                           <xmpG:blue>11</xmpG:blue>
                        </rdf:li>
                     </rdf:Seq>
                  </xmpG:Colorants>
               </rdf:li>
               <rdf:li rdf:parseType="Resource">
                  <xmpG:groupName>Grays</xmpG:groupName>
                  <xmpG:groupType>1</xmpG:groupType>
                  <xmpG:Colorants>
                     <rdf:Seq>
                        <rdf:li rdf:parseType="Resource">
                           <xmpG:swatchName>R=0 G=0 B=0</xmpG:swatchName>
                           <xmpG:mode>RGB</xmpG:mode>
                           <xmpG:type>PROCESS</xmpG:type>
                           <xmpG:red>0</xmpG:red>
                           <xmpG:green>0</xmpG:green>
                           <xmpG:blue>0</xmpG:blue>
                        </rdf:li>
                        <rdf:li rdf:parseType="Resource">
                           <xmpG:swatchName>R=26 G=26 B=26</xmpG:swatchName>
                           <xmpG:mode>RGB</xmpG:mode>
                           <xmpG:type>PROCESS</xmpG:type>
                           <xmpG:red>26</xmpG:red>
                           <xmpG:green>26</xmpG:green>
                           <xmpG:blue>26</xmpG:blue>
                        </rdf:li>
                        <rdf:li rdf:parseType="Resource">
                           <xmpG:swatchName>R=51 G=51 B=51</xmpG:swatchName>
                           <xmpG:mode>RGB</xmpG:mode>
                           <xmpG:type>PROCESS</xmpG:type>
                           <xmpG:red>51</xmpG:red>
                           <xmpG:green>51</xmpG:green>
                           <xmpG:blue>51</xmpG:blue>
                        </rdf:li>
                        <rdf:li rdf:parseType="Resource">
                           <xmpG:swatchName>R=77 G=77 B=77</xmpG:swatchName>
                           <xmpG:mode>RGB</xmpG:mode>
                           <xmpG:type>PROCESS</xmpG:type>
                           <xmpG:red>77</xmpG:red>
                           <xmpG:green>77</xmpG:green>
                           <xmpG:blue>77</xmpG:blue>
                        </rdf:li>
                        <rdf:li rdf:parseType="Resource">
                           <xmpG:swatchName>R=102 G=102 B=102</xmpG:swatchName>
                           <xmpG:mode>RGB</xmpG:mode>
                           <xmpG:type>PROCESS</xmpG:type>
                           <xmpG:red>102</xmpG:red>
                           <xmpG:green>102</xmpG:green>
                           <xmpG:blue>102</xmpG:blue>
                        </rdf:li>
                        <rdf:li rdf:parseType="Resource">
                           <xmpG:swatchName>R=128 G=128 B=128</xmpG:swatchName>
                           <xmpG:mode>RGB</xmpG:mode>
                           <xmpG:type>PROCESS</xmpG:type>
                           <xmpG:red>128</xmpG:red>
                           <xmpG:green>128</xmpG:green>
                           <xmpG:blue>128</xmpG:blue>
                        </rdf:li>
                        <rdf:li rdf:parseType="Resource">
                           <xmpG:swatchName>R=153 G=153 B=153</xmpG:swatchName>
                           <xmpG:mode>RGB</xmpG:mode>
                           <xmpG:type>PROCESS</xmpG:type>
                           <xmpG:red>153</xmpG:red>
                           <xmpG:green>153</xmpG:green>
                           <xmpG:blue>153</xmpG:blue>
                        </rdf:li>
                        <rdf:li rdf:parseType="Resource">
                           <xmpG:swatchName>R=179 G=179 B=179</xmpG:swatchName>
                           <xmpG:mode>RGB</xmpG:mode>
                           <xmpG:type>PROCESS</xmpG:type>
                           <xmpG:red>179</xmpG:red>
                           <xmpG:green>179</xmpG:green>
                           <xmpG:blue>179</xmpG:blue>
                        </rdf:li>
                        <rdf:li rdf:parseType="Resource">
                           <xmpG:swatchName>R=204 G=204 B=204</xmpG:swatchName>
                           <xmpG:mode>RGB</xmpG:mode>
                           <xmpG:type>PROCESS</xmpG:type>
                           <xmpG:red>204</xmpG:red>
                           <xmpG:green>204</xmpG:green>
                           <xmpG:blue>204</xmpG:blue>
                        </rdf:li>
                        <rdf:li rdf:parseType="Resource">
                           <xmpG:swatchName>R=230 G=230 B=230</xmpG:swatchName>
                           <xmpG:mode>RGB</xmpG:mode>
                           <xmpG:type>PROCESS</xmpG:type>
                           <xmpG:red>230</xmpG:red>
                           <xmpG:green>230</xmpG:green>
                           <xmpG:blue>230</xmpG:blue>
                        </rdf:li>
                        <rdf:li rdf:parseType="Resource">
                           <xmpG:swatchName>R=242 G=242 B=242</xmpG:swatchName>
                           <xmpG:mode>RGB</xmpG:mode>
                           <xmpG:type>PROCESS</xmpG:type>
                           <xmpG:red>242</xmpG:red>
                           <xmpG:green>242</xmpG:green>
                           <xmpG:blue>242</xmpG:blue>
                        </rdf:li>
                     </rdf:Seq>
                  </xmpG:Colorants>
               </rdf:li>
               <rdf:li rdf:parseType="Resource">
                  <xmpG:groupName>Web Color Group</xmpG:groupName>
                  <xmpG:groupType>1</xmpG:groupType>
                  <xmpG:Colorants>
                     <rdf:Seq>
                        <rdf:li rdf:parseType="Resource">
                           <xmpG:swatchName>R=63 G=169 B=245</xmpG:swatchName>
                           <xmpG:mode>RGB</xmpG:mode>
                           <xmpG:type>PROCESS</xmpG:type>
                           <xmpG:red>63</xmpG:red>
                           <xmpG:green>169</xmpG:green>
                           <xmpG:blue>245</xmpG:blue>
                        </rdf:li>
                        <rdf:li rdf:parseType="Resource">
                           <xmpG:swatchName>R=122 G=201 B=67</xmpG:swatchName>
                           <xmpG:mode>RGB</xmpG:mode>
                           <xmpG:type>PROCESS</xmpG:type>
                           <xmpG:red>122</xmpG:red>
                           <xmpG:green>201</xmpG:green>
                           <xmpG:blue>67</xmpG:blue>
                        </rdf:li>
                        <rdf:li rdf:parseType="Resource">
                           <xmpG:swatchName>R=255 G=147 B=30</xmpG:swatchName>
                           <xmpG:mode>RGB</xmpG:mode>
                           <xmpG:type>PROCESS</xmpG:type>
                           <xmpG:red>255</xmpG:red>
                           <xmpG:green>147</xmpG:green>
                           <xmpG:blue>30</xmpG:blue>
                        </rdf:li>
                        <rdf:li rdf:parseType="Resource">
                           <xmpG:swatchName>R=255 G=29 B=37</xmpG:swatchName>
                           <xmpG:mode>RGB</xmpG:mode>
                           <xmpG:type>PROCESS</xmpG:type>
                           <xmpG:red>255</xmpG:red>
                           <xmpG:green>29</xmpG:green>
                           <xmpG:blue>37</xmpG:blue>
                        </rdf:li>
                        <rdf:li rdf:parseType="Resource">
                           <xmpG:swatchName>R=255 G=123 B=172</xmpG:swatchName>
                           <xmpG:mode>RGB</xmpG:mode>
                           <xmpG:type>PROCESS</xmpG:type>
                           <xmpG:red>255</xmpG:red>
                           <xmpG:green>123</xmpG:green>
                           <xmpG:blue>172</xmpG:blue>
                        </rdf:li>
                        <rdf:li rdf:parseType="Resource">
                           <xmpG:swatchName>R=189 G=204 B=212</xmpG:swatchName>
                           <xmpG:mode>RGB</xmpG:mode>
                           <xmpG:type>PROCESS</xmpG:type>
                           <xmpG:red>189</xmpG:red>
                           <xmpG:green>204</xmpG:green>
                           <xmpG:blue>212</xmpG:blue>
                        </rdf:li>
                     </rdf:Seq>
                  </xmpG:Colorants>
               </rdf:li>
            </rdf:Seq>
         </xmpTPg:SwatchGroups>
         <pdf:Producer>Adobe PDF library 10.01</pdf:Producer>
      </rdf:Description>
   </rdf:RDF>
</x:xmpmeta>
                                                                                                    
                                                                                                    
                                                                                                    
                                                                                                    
                                                                                                    
                                                                                                    
                                                                                                    
                                                                                                    
                                                                                                    
                                                                                                    
                                                                                                    
                                                                                                    
                                                                                                    
                                                                                                    
                                                                                                    
                                                                                                    
                                                                                                    
                                                                                                    
                                                                                                    
                                                                                                    
                           
<?xpacket end="w"?>
	</metadata>
<g>
	<path fill="#CCCCCC" d="M6.7,18.3V9.4l-2.7,1.2c0,0-0.7,1.5-0.6,3.7c0.1,1.7,1.1,3.8,1.8,4.7L6.7,18.3 M14.6,0
		c0.7,0.1,1.7,0.4,2.5,1.1c0.8,0.8,1,2,0.7,3.1c-0.3,1-0.5,1.5-1.6,2.2c-1,0.7-2.2,0.6-2.2,0.6v4.3L16,13l-2.1,1.7l0,5.8
		c0,0,2.1-1.2,3.4-3.9c0,0,0.1-0.1,0.2-0.4c0.1,0.7,0,2.2-0.8,4c-0.6,1.4-1.7,2.8-3.1,3.5c-2.5,1.4-4.3,1.5-6.3,1.1
		c-2.3-0.5-4.4-1.8-5.9-4.1c-1-1.6-1.5-3.5-1.4-5.5C0.1,11.4,3,8,6.4,6.7C6.8,6.5,7,6.4,7.6,6.4C7.3,6.6,7,6.8,6.6,7.1
		c-1.1,0.7-2,2.1-2.4,3.2l6.6-2.9v9.2l-5.3,2.7c0.6,0.8,2.4,2.1,4,2.3c2.7,0.3,4.2-0.9,4.2-0.9l0-6L11.6,13l2.1-1.7V7
		c-1.1-0.1-2.5-0.5-3.3-0.7C9.2,6,5.3,4.9,4.7,4.8C4.1,4.8,3.3,4.8,2.8,5.2C2.4,5.6,2.1,6.3,2.3,7c0.1,0.4,0.4,0.6,0.6,0.8
		c0,0-0.2,0-0.6-0.3C1.5,7.1,0.9,6.2,0.8,5.1C0.7,3.7,1.3,2.5,2.5,1.6C3.5,1,4.6,0.6,6,0.7c1.9,0.3,4.5,1.4,6.9,1.9
		C13.7,2.9,14.4,3,15,2.6c0.3-0.2,0.8-0.8,0.4-1.5c-0.5-0.9-1.4-0.8-2.2-1C13.9,0,14,0,14.6,0z"/>
	<path fill="#CCCCCC" d="M40.1,16l-3,2.2v-7.3L40.1,16 M40.1,9c0,0-2,1.2-3.4,2c-1.4,0.8-3.2,1.7-3.2,1.7v8.5l-1.2,1l0.2,0.2l1.2-1
		l3.7,3.3l6.4-5.1l-0.2-0.2l-3.6,2.8l-2.9-2.7l0-1l5.9-4.3L40.1,9z"/>
	<path fill="#CCCCCC" d="M23.2,27.9c0.8,0.2,2.3,0.3,4.1-0.6c2-1,3-3.1,3-5.3l0.1-3.1l0-6.7l1.3-1l-0.1-0.2l-1.3,0.9l-2.9-3.2
		L23.6,12V1.2L19,4.8C19.2,4.9,19.9,5,19.9,6v15.2l-2,1.5l0.1,0.2l0.9-0.7l2.6,2.5l4.2-3.3L25.7,21l-1,0.8l-1-1l0-8.4l1.2-1l1.8,2.2
		c0,0,0,5.5,0,7.3c0,1.9,0,4.4-1,5.5C24.6,27.5,24.2,27.6,23.2,27.9"/>
	<path fill="#CCCCCC" d="M52,27.2c-1.7-0.2-2.4-1.2-2.3-2c0-0.5,0.5-1.5,1.5-1.6c1-0.1,2,0.3,2.9,1.4l3.8-4.2l-0.2-0.2l-1,1.2
		c-1-1.2-2.5-1.9-4-2.2V6.6l10,18.1c0,0,0.1,0.2,0.5,0.2c0.4,0,0.3-0.3,0.3-0.3l0-18.3c0.8,0,2-0.5,2.6-1.1C68,3.3,67.2,1.2,67,1
		c-0.1,0.9-0.8,1.9-2,1.9c-1.6,0-2.5-1.2-2.5-1.2l-3.8,4.4l0.2,0.2L59.8,5c1.3,1.2,2.3,1.4,3.3,1.4l0,10.6L55.8,3.6
		c-0.7-1.1-1.7-2.1-3.3-2.1c-1.8,0-3.1,1.6-3.3,3c-0.2,1.6,0,1.9,0,1.9s0.3-1.8,1.4-1.7c1,0,1.5,0.9,1.9,1.6v3.9
		c-1,0.1-3.6,0.2-3.8,2.9c0,1,0.6,2.1,1.2,2.4c0.7,0.5,1.3,0.5,1.3,0.5s-0.8-0.5-0.6-1.3c0.2-0.8,1.9-0.9,1.9-0.6l0,5.5
		c-0.8,0-3.4,0.1-4.5,2.3c-0.7,1.3-0.7,2.8,0.1,3.9C48.6,26.4,49.9,27.5,52,27.2"/>
	<path fill="#CCCCCC" d="M73.1,16l-3,2.2v-7.3L73.1,16 M73,9c0,0-2,1.2-3.4,2c-1.4,0.8-3.2,1.7-3.2,1.7v8.5l-1.2,1l0.2,0.2l1.2-1
		l3.7,3.3l6.4-5.1l-0.2-0.2l-3.6,2.8l-2.9-2.7l0-1l5.9-4.3L73,9z"/>
	<path fill="#CCCCCC" d="M82,24.8l-3.2-2.6l-1.4,1L77.4,23l1.4-1v-7.3c0.1-3-2.8-2.3-2.6-5.5c0.1-1.4,1.4-2.5,2.1-2.8
		C79,6,79.8,6,79.8,6s-1.3,0.8-1,2c0.5,1.8,3.5,2,3.6,4.3v8.3l2.3,1.8l0.6-0.5v-9l-1.2-1.2l3.1-2.8l2.9,2.5L89,12.7v8l2.7,2.2
		l0.5-0.3v-9.6l-1.2-1.1l3.1-2.9l2.9,2.4l1.2-1l0.2,0.2l-2.6,2.3v7.8l-6.8,4.2l-3.5-2.7L82,24.8"/>
	<path fill="#CCCCCC" d="M220.5,16l-3,2.2v-7.3L220.5,16 M220.4,9c0,0-2,1.2-3.4,2c-1.4,0.8-3.2,1.7-3.2,1.7v8.5l-1.2,1l0.2,0.2
		l1.2-1l3.7,3.3l6.4-5.1l-0.2-0.2l-3.6,2.8l-2.9-2.7v-1l5.9-4.3L220.4,9z"/>
	<polyline fill="#CCCCCC" points="190.2,12.5 190.3,12.7 191.5,11.7 193.3,13.7 193.3,20.7 192.5,21.5 195.3,24.7 198.1,21.8 
		197,20.6 197,12.2 197.7,11.6 199.7,13.9 199.7,20.9 198.9,21.6 201.6,24.6 204.4,21.8 203.4,20.7 203.3,12.2 204.1,11.6 
		206.2,13.9 206.2,20.8 205.5,21.5 208.4,24.7 212.3,21 212.1,20.9 211.2,21.7 209.7,20.1 209.7,12.2 211.1,11.1 211,10.9 209.6,12 
		206.9,9 203.1,12 200.4,9.1 196.8,12 194.1,9.1 190.2,12.5 	"/>
	<polyline fill="#CCCCCC" points="182.2,12.3 182.4,12.5 183.4,11.6 185,13.5 185,21.5 183.9,22.5 184,22.7 185.2,21.7 187.8,24.7 
		191.5,21.3 191.4,21.1 190.3,22.1 188.7,20.3 188.7,12.5 190,11.4 189.9,11.2 188.6,12.3 185.9,9.1 182.2,12.3 	"/>
	<polyline fill="#CCCCCC" points="183.3,5.7 186.1,3.1 188.4,5.7 185.5,8.2 183.3,5.7 	"/>
	<path fill="#CCCCCC" d="M171.7,18.3V9.4l-2.7,1.2c0,0-0.7,1.5-0.6,3.7c0.1,1.7,1.1,3.8,1.8,4.7L171.7,18.3 M179.5,0
		c0.7,0.1,1.7,0.4,2.5,1.1c0.8,0.8,1,2,0.7,3.1c-0.3,1-0.5,1.5-1.6,2.2c-1,0.7-2.2,0.6-2.2,0.6v4.3L181,13l-2.1,1.7v5.8
		c0,0,2.1-1.2,3.4-3.9c0,0,0.1-0.1,0.2-0.4c0.1,0.7,0.1,2.2-0.8,4c-0.6,1.4-1.7,2.8-3.1,3.5c-2.5,1.4-4.3,1.5-6.3,1.1
		c-2.3-0.5-4.4-1.8-5.9-4.1c-1-1.6-1.5-3.5-1.4-5.5c0.1-3.9,3-7.3,6.4-8.6c0.4-0.2,0.6-0.3,1.2-0.3c-0.3,0.2-0.6,0.4-1,0.7
		c-1.1,0.7-2,2.1-2.4,3.2l6.6-2.9v9.2l-5.3,2.7c0.6,0.8,2.4,2.1,4,2.3c2.7,0.3,4.2-0.9,4.2-0.9v-6l-2.1-1.7l2.1-1.7V7
		c-1.1-0.1-2.5-0.5-3.3-0.7c-1.2-0.3-5.1-1.4-5.7-1.5c-0.6-0.1-1.4-0.1-1.8,0.3c-0.5,0.4-0.7,1.1-0.6,1.8c0.1,0.4,0.4,0.6,0.6,0.8
		c0,0-0.2,0-0.6-0.3c-0.7-0.4-1.3-1.3-1.4-2.4c-0.1-1.4,0.5-2.7,1.7-3.5c1-0.6,2.2-1.1,3.5-0.9c1.9,0.3,4.5,1.4,6.9,1.9
		c0.9,0.2,1.6,0.3,2.2-0.1c0.3-0.2,0.8-0.8,0.4-1.5c-0.5-0.9-1.4-0.8-2.2-1C178.8,0,179,0,179.5,0z"/>
	<path fill="#CCCCCC" d="M228.8,10.6v4.2l1.4,1.2c0,0,3-2.4,4.1-4.7c0,0-1.4,1.9-3.2,1.3C229.6,12.2,228.8,10.6,228.8,10.6
		 M225.4,21.8c0,0,1.3-2.2,3.6-1.7c2.2,0.5,3,2.8,3,2.8v-5.3l-1.5-1.3C228.7,17.9,225.8,20.3,225.4,21.8z M227.6,25.8
		c-0.4,0.1-2.3-0.3-2.7-2.2c-0.4-1.9,0.9-3.1,2.8-5.1l-2.3-2.1v-4c0,0,1.7-0.9,3-1.7c1.3-0.8,2.7-1.7,2.7-1.7s1,1.3,2.1,1.2
		c1.8-0.2,1.7-1.5,1.6-1.9c0.3,0.5,1.1,2.1-2,5.7l2.5,2v5.3c0,0-2.9,1.5-5.7,3.5c0,0-1.5-1.9-2.9-1
		C225.9,24.3,226.3,25.4,227.6,25.8z"/>
	<path fill="#CCCCCC" d="M126.2,19.9l3.3,2.9v-9l-3.3-3V19.9 M132.9,12.5l1.1-1l0.2,0.2l-1.1,1V21c0,0-2.1,1.1-3.6,1.9
		c-1.5,0.8-3,1.8-3,1.8l-3.9-3.2l-1,0.9l-0.2-0.2l1.1-0.9v-9h0c0,0,1.8-0.8,3.4-1.7c1.4-0.8,2.9-1.7,2.9-1.7L132.9,12.5z"/>
	<path fill="#CCCCCC" d="M140.5,11.6l2.4-2.5c0,0,0.3,0.3,0.7,0.5c0.2,0.1,0.9,0.5,1.6,0.1c0.4-0.2,0.4-0.3,0.8-0.6
		c0.1,1.9-0.9,3.3-2,3.9c-0.5,0.2-1.9,0.7-3.3-1.1v9l1.6,1.4l1.3-1.1l0.1,0.2l-4.1,3.4l-3.1-2.8l-1.1,1l-0.2-0.2l1.7-1.5l0-7.8
		l-1.3-1.7l-1.1,1l-0.2-0.2l3.9-3.5L140.5,11.6"/>
	<path fill="#CCCCCC" d="M150.8,15.4l4.5-6.6c0,0,0.6,0.7,1.6,1c1.4,0.4,2.6-1,2.6-1c-0.2,1.8-1.1,3.8-3,4.1c-1.6,0.3-3.1-1-3.1-1
		l-0.3,0.5l6.3,9.5l1.3-1.1l0.2,0.2l-4.3,3.8L150.8,15.4"/>
	<path fill="#CCCCCC" d="M147,6.6c0-1.4-0.6-2.3-1.3-2.2l4.9-3.5v19.6h0l1.3,1.4l1-0.9l0.2,0.2l-4,3.5l-2.7-2.5l-1.1,0.9l-0.2-0.2
		l1.9-1.6V6.6"/>
	<path fill="#CCCCCC" d="M115.3,12.1c0,0-0.5,0.6-1.4,0.6s-1.4-0.6-1.4-0.6v2.7c0,0,0.6-0.6,1.4-0.6s1.4,0.6,1.4,0.6V12.1
		 M115.3,6.4l-1.9-1.7l-0.9,0.7v6.3c0,0,0.6,0.7,1.4,0.7c0.9,0,1.4-0.7,1.4-0.7V6.4z M112.5,24.2c0,0,1.2,0.3,2-0.4
		c0.9-0.8,0.8-1.8,0.8-1.8v-6.8c0,0-0.5-0.7-1.4-0.7c-0.9,0-1.4,0.7-1.4,0.7V24.2z M105.7,6.3c0-1.3-0.5-2.1-1.4-2.1
		c-1.3,0-1.6,1.7-1.6,1.7s-0.2-1.4,0.9-2.6c0.6-0.7,1.8-1.7,3.7-1.2c1.9,0.5,2.5,2,2.5,3.3v18.3c0,0,0.7,0.1,1.2,0.2
		c0.6,0.1,1.1,0.3,1.1,0.3v-22h0.2v3l4-3.2l2.9,2.6l1.4-1.2l0.2,0.2l-1.4,1.2v17c-0.1,1.1-0.2,2.2-1.3,2.9c-2.3,1.4-5.2-0.2-7.7-0.6
		c-1.9-0.3-4.8-0.6-5.5,1.1c-0.2,0.6-0.2,1.4,0.6,2c1.7,1.1,9.2-1.9,11.8-0.7c2.4,1.1,2.4,2.8,2,4c-0.6,2.2-3.4,2.6-3.4,2.6
		s1.4-0.8,1-2.1c-0.2-0.7-0.7-0.9-2.1-0.7c-3.2,0.4-7.1,1.9-9.7,0.8c-1.3-0.6-2.3-2.2-2.2-3.9c0.1-2.4,2.8-3.3,2.8-3.3l0-8.8
		c-0.1-0.3-1.5-0.3-1.9,0.4c-0.5,1,0.6,1.4,0.6,1.4s-0.9,0.1-1.7-0.7c-0.4-0.4-1.1-1.9-0.1-3.3c0.8-1.1,1.8-1.3,3-1.5V6.3z"/>
</g>
<g>
</g>
<g>
</g>
<g>
</g>
<g>
</g>
<g>
</g>
<g>
</g>
<g>
</g>
<g>
</g>
<g>
</g>
<g>
</g>
<g>
</g>
<g>
</g>
<g>
</g>
<g>
</g>
<g>
</g>
</svg>
