<?xml version="1.0" encoding="utf-8"?>
<!-- Generator: Adobe Illustrator 18.1.1, SVG Export Plug-In . SVG Version: 6.00 Build 0)  -->
<svg version="1.1" xmlns="http://www.w3.org/2000/svg" xmlns:xlink="http://www.w3.org/1999/xlink" x="0px" y="0px"
	 viewBox="0 0 27 28" enable-background="new 0 0 27 28" xml:space="preserve">
<g>
	<g id="New_Symbol">
	</g>
	<g>
		<g>
			<path fill="#FFFFFF" d="M27,26c0,1.1-1.4,2-3,2H3c-1.6,0-3-0.9-3-2s1.4-2,3-2h21C25.6,24,27,24.9,27,26z"/>
		</g>
		<g>
			<path fill="#FFFFFF" d="M27,14c0,1.1-1.4,2-3,2H3c-1.6,0-3-0.9-3-2s1.4-2,3-2h21C25.6,12,27,12.9,27,14z"/>
		</g>
		<g>
			<path fill="#FFFFFF" d="M27,2c0,1.1-1.4,2-3,2H3C1.4,4,0,3.1,0,2s1.4-2,3-2h21C25.6,0,27,0.9,27,2z"/>
		</g>
	</g>
</g>
<g id="grid" display="none">
</g>
</svg>
